<svg width="38" height="38" viewBox="0 0 38 38" fill="none" xmlns="http://www.w3.org/2000/svg">
<path fill-rule="evenodd" clip-rule="evenodd" d="M12.1348 28.6883C18.4118 33.5758 27.4931 33.1343 33.2634 27.364C39.5118 21.1156 39.5118 10.9849 33.2634 4.73654C27.0151 -1.51184 16.8844 -1.51184 10.636 4.73654C4.86567 10.5069 4.42422 19.5882 9.31167 25.8652C9.29619 25.8789 9.28086 25.8929 9.26569 25.9072C9.2509 25.9211 9.23627 25.9353 9.22182 25.9497L0.736534 34.435C-0.0445134 35.2161 -0.0445242 36.4824 0.736534 37.2635C1.51759 38.0445 2.78391 38.0445 3.56496 37.2635L12.0502 28.7782C12.0586 28.7698 12.0668 28.7615 12.075 28.753C12.0955 28.7318 12.1154 28.7102 12.1348 28.6883ZM12.0502 25.9497C17.5176 31.4171 26.3819 31.4171 31.8492 25.9497C37.3166 20.4824 37.3166 11.6181 31.8492 6.15076C26.3819 0.683412 17.5176 0.683418 12.0502 6.15076C6.5829 11.6181 6.5829 20.4824 12.0502 25.9497Z" fill="white"/>
</svg>
