<svg width="30" height="34" viewBox="0 0 30 34" fill="none" xmlns="http://www.w3.org/2000/svg">
<path d="M30 12.3597C30 18.9871 24.6274 24.3597 18 24.3597C11.3726 24.3597 6 18.9871 6 12.3597C6 5.73226 11.3726 0.35968 18 0.35968C24.6274 0.35968 30 5.73226 30 12.3597Z" fill="url(#paint0_radial_29_625)"/>
<path d="M5.60047 24.3597H25.8022C27.2015 24.2763 30 23.3097 30 20.1097C30 16.9097 27.2015 15.943 25.8022 15.8597C25.9771 14.943 25.8022 12.8597 23.7033 11.8597C21.6045 10.8597 19.5056 11.943 18.7185 12.6097C18.7185 12.6097 17.9314 9.35968 12.6842 9.35968C8.48643 9.35968 7.2106 12.274 6.64991 13.6097C-1.48326 12.8597 -2.53268 24.3597 5.60047 24.3597Z" fill="url(#paint1_linear_29_625)"/>
<rect x="8.16312" y="24.3597" width="3.24324" height="4.97487" rx="1.62162" transform="rotate(30 8.16312 24.3597)" fill="white"/>
<rect x="21.8919" y="24.3597" width="3.24324" height="4.97487" rx="1.62162" transform="rotate(30 21.8919 24.3597)" fill="white"/>
<rect x="15.4054" y="24.3597" width="3.24324" height="8.93516" rx="1.62162" transform="rotate(30 15.4054 24.3597)" fill="white"/>
<defs>
<radialGradient id="paint0_radial_29_625" cx="0" cy="0" r="1" gradientUnits="userSpaceOnUse" gradientTransform="translate(22.4 5.95968) rotate(126.87) scale(14)">
<stop stop-color="white"/>
<stop offset="1" stop-color="#B0B0B0"/>
</radialGradient>
<linearGradient id="paint1_linear_29_625" x1="14.6922" y1="21.3597" x2="14.7748" y2="25.8598" gradientUnits="userSpaceOnUse">
<stop stop-color="white"/>
<stop offset="1" stop-color="#D5D5D5"/>
</linearGradient>
</defs>
</svg>
