<svg width="30" height="27" viewBox="0 0 30 27" fill="none" xmlns="http://www.w3.org/2000/svg">
<path d="M9.00507 13.2558H26.388C27.592 13.1822 30 12.3279 30 9.5C30 6.67209 27.592 5.81783 26.388 5.74419C26.5385 4.93411 26.388 3.09302 24.582 2.2093C22.7759 1.32558 20.9699 2.28295 20.2927 2.87209C20.2927 2.87209 19.6154 0 15.1004 0C11.4883 0 10.3905 2.57546 9.90808 3.75581C2.90977 3.09302 2.00678 13.2558 9.00507 13.2558Z" fill="url(#paint0_linear_29_533)"/>
<path d="M4.81901 15.3488H22.2019C23.4059 15.2752 25.814 14.4209 25.814 11.593C25.814 8.76513 23.4059 7.91086 22.2019 7.83722C22.3524 7.02714 22.2019 5.18606 20.3959 4.30234C18.5899 3.41861 16.7839 4.37598 16.1066 4.96513C16.1066 4.96513 15.4294 2.09303 10.9143 2.09303C7.30228 2.09303 6.20447 4.66849 5.72202 5.84885C-1.27629 5.18606 -2.17928 15.3488 4.81901 15.3488Z" fill="url(#paint1_linear_29_533)"/>
<path d="M11.9768 15.3488H15.4651L13.721 18.6047H16.0465L9.06979 25.814L11.6861 20.4651H9.06979L11.9768 15.3488Z" fill="#FFE500"/>
<rect x="6.32639" y="15.3488" width="2.7907" height="4.2807" rx="1.39535" transform="rotate(30 6.32639 15.3488)" fill="white"/>
<rect x="18.8846" y="15.3488" width="2.7907" height="4.2807" rx="1.39535" transform="rotate(30 18.8846 15.3488)" fill="white"/>
<defs>
<linearGradient id="paint0_linear_29_533" x1="16.8282" y1="10.6047" x2="16.9031" y2="14.5815" gradientUnits="userSpaceOnUse">
<stop stop-color="#DADADA"/>
<stop offset="1" stop-color="#9C9C9C"/>
</linearGradient>
<linearGradient id="paint1_linear_29_533" x1="12.6421" y1="12.6977" x2="12.7171" y2="16.6745" gradientUnits="userSpaceOnUse">
<stop stop-color="white"/>
<stop offset="1" stop-color="#D5D5D5"/>
</linearGradient>
</defs>
</svg>
