<svg width="30" height="25" viewBox="0 0 30 25" fill="none" xmlns="http://www.w3.org/2000/svg">
<path d="M5.60047 15.4054H25.8022C27.2015 15.3198 30 14.327 30 11.0405C30 7.75405 27.2015 6.76126 25.8022 6.67567C25.9771 5.73423 25.8022 3.59459 23.7033 2.56757C21.6045 1.54054 19.5056 2.65315 18.7185 3.33784C18.7185 3.33784 17.9314 0 12.6842 0C8.48643 0 7.2106 2.9931 6.64991 4.36486C-1.48326 3.59459 -2.53268 15.4054 5.60047 15.4054Z" fill="url(#paint0_linear_29_534)"/>
<rect x="7.35229" y="15.4054" width="3.24324" height="4.97487" rx="1.62162" transform="rotate(30 7.35229 15.4054)" fill="white"/>
<rect x="21.0811" y="15.4054" width="3.24324" height="4.97487" rx="1.62162" transform="rotate(30 21.0811 15.4054)" fill="white"/>
<rect x="14.5946" y="15.4054" width="3.24324" height="8.93516" rx="1.62162" transform="rotate(30 14.5946 15.4054)" fill="white"/>
<defs>
<linearGradient id="paint0_linear_29_534" x1="14.6922" y1="12.3243" x2="14.7793" y2="16.946" gradientUnits="userSpaceOnUse">
<stop stop-color="white"/>
<stop offset="1" stop-color="#D5D5D5"/>
</linearGradient>
</defs>
</svg>
