<svg width="30" height="16" viewBox="0 0 30 16" fill="none" xmlns="http://www.w3.org/2000/svg">
<path d="M9.00504 13.2558H26.388C27.592 13.1822 30 12.3279 30 9.5C30 6.67209 27.592 5.81783 26.388 5.74419C26.5385 4.93411 26.388 3.09302 24.5819 2.2093C22.7759 1.32558 20.9699 2.28295 20.2926 2.87209C20.2926 2.87209 19.6154 0 15.1004 0C11.4883 0 10.3905 2.57546 9.90805 3.75581C2.90974 3.09302 2.00675 13.2558 9.00504 13.2558Z" fill="url(#paint0_linear_29_536)"/>
<path d="M4.81901 15.3488H22.2019C23.4059 15.2752 25.814 14.4209 25.814 11.593C25.814 8.76511 23.4059 7.91085 22.2019 7.8372C22.3524 7.02713 22.2019 5.18604 20.3959 4.30232C18.5899 3.4186 16.7839 4.37596 16.1066 4.96511C16.1066 4.96511 15.4294 2.09302 10.9143 2.09302C7.30228 2.09302 6.20447 4.66848 5.72202 5.84883C-1.27629 5.18604 -2.17928 15.3488 4.81901 15.3488Z" fill="url(#paint1_linear_29_536)"/>
<defs>
<linearGradient id="paint0_linear_29_536" x1="16.8282" y1="10.6046" x2="16.9031" y2="14.5815" gradientUnits="userSpaceOnUse">
<stop stop-color="#DADADA"/>
<stop offset="1" stop-color="#9C9C9C"/>
</linearGradient>
<linearGradient id="paint1_linear_29_536" x1="12.6421" y1="12.6977" x2="12.7171" y2="16.6745" gradientUnits="userSpaceOnUse">
<stop stop-color="white"/>
<stop offset="1" stop-color="#D5D5D5"/>
</linearGradient>
</defs>
</svg>
