<svg width="30" height="34" viewBox="0 0 30 34" fill="none" xmlns="http://www.w3.org/2000/svg">
<path d="M30 12C30 18.6274 24.6274 24 18 24C11.3726 24 6 18.6274 6 12C6 5.37258 11.3726 0 18 0C24.6274 0 30 5.37258 30 12Z" fill="url(#paint0_radial_29_532)"/>
<path d="M5.60047 24H25.8022C27.2015 23.9167 30 22.95 30 19.75C30 16.55 27.2015 15.5833 25.8022 15.5C25.9771 14.5833 25.8022 12.5 23.7033 11.5C21.6045 10.5 19.5056 11.5833 18.7185 12.25C18.7185 12.25 17.9314 9 12.6842 9C8.48643 9 7.2106 11.9143 6.64991 13.25C-1.48326 12.5 -2.53268 24 5.60047 24Z" fill="url(#paint1_linear_29_532)"/>
<rect x="8.16312" y="24" width="3.24324" height="4.97487" rx="1.62162" transform="rotate(30 8.16312 24)" fill="white"/>
<rect x="21.8919" y="24" width="3.24324" height="4.97487" rx="1.62162" transform="rotate(30 21.8919 24)" fill="white"/>
<rect x="15.4054" y="24" width="3.24324" height="8.93516" rx="1.62162" transform="rotate(30 15.4054 24)" fill="white"/>
<defs>
<radialGradient id="paint0_radial_29_532" cx="0" cy="0" r="1" gradientUnits="userSpaceOnUse" gradientTransform="translate(22.4 5.6) rotate(126.87) scale(14)">
<stop stop-color="#FFF6A6"/>
<stop offset="1" stop-color="#FFFF00"/>
</radialGradient>
<linearGradient id="paint1_linear_29_532" x1="14.6922" y1="21" x2="14.7748" y2="25.5002" gradientUnits="userSpaceOnUse">
<stop stop-color="white"/>
<stop offset="1" stop-color="#D5D5D5"/>
</linearGradient>
</defs>
</svg>
