<svg width="30" height="25" viewBox="0 0 30 25" fill="none" xmlns="http://www.w3.org/2000/svg">
<path d="M30 12C30 18.6274 24.6274 24 18 24C11.3726 24 6 18.6274 6 12C6 5.37258 11.3726 0 18 0C24.6274 0 30 5.37258 30 12Z" fill="url(#paint0_radial_29_531)"/>
<path d="M5.60047 24.4054H25.8022C27.2015 24.3198 30 23.327 30 20.0405C30 16.7541 27.2015 15.7613 25.8022 15.6757C25.9771 14.7342 25.8022 12.5946 23.7033 11.5676C21.6045 10.5405 19.5056 11.6532 18.7185 12.3378C18.7185 12.3378 17.9314 9 12.6842 9C8.48643 9 7.2106 11.9931 6.64991 13.3649C-1.48326 12.5946 -2.53268 24.4054 5.60047 24.4054Z" fill="url(#paint1_linear_29_531)"/>
<defs>
<radialGradient id="paint0_radial_29_531" cx="0" cy="0" r="1" gradientUnits="userSpaceOnUse" gradientTransform="translate(22.4 5.6) rotate(126.87) scale(14)">
<stop stop-color="#FFF6A6"/>
<stop offset="1" stop-color="#FFFF00"/>
</radialGradient>
<linearGradient id="paint1_linear_29_531" x1="14.6922" y1="21.3243" x2="14.7793" y2="25.946" gradientUnits="userSpaceOnUse">
<stop stop-color="white"/>
<stop offset="1" stop-color="#D5D5D5"/>
</linearGradient>
</defs>
</svg>
