<svg width="30" height="33" viewBox="0 0 30 33" fill="none" xmlns="http://www.w3.org/2000/svg">
<path d="M12.8441 2.15592C12.8441 0.965236 13.8094 0 15 0C16.1907 0 17.1559 0.965236 17.1559 2.15592V30.1828C17.1559 31.3735 16.1907 32.3387 15 32.3387C13.8094 32.3387 12.8441 31.3735 12.8441 30.1828V2.15592Z" fill="white"/>
<path d="M9.33174 4.71156C8.84178 4.46658 8.53228 3.9658 8.53228 3.41801C8.53228 2.34291 9.66369 1.64366 10.6253 2.12446L13.4732 3.54842C14.4344 4.029 15.5657 4.029 16.5269 3.54842L19.3748 2.12446C20.3364 1.64366 21.4678 2.34291 21.4678 3.41801C21.4678 3.9658 21.1583 4.46658 20.6683 4.71156L16.9283 6.58155C15.7144 7.1885 14.2856 7.1885 13.0717 6.58155L9.33174 4.71156Z" fill="white"/>
<path d="M20.6683 27.6272C21.1583 27.8722 21.4678 28.3729 21.4678 28.9207C21.4678 29.9958 20.3364 30.6951 19.3748 30.2143L16.5269 28.7903C15.5657 28.3097 14.4344 28.3097 13.4732 28.7903L10.6253 30.2143C9.66369 30.6951 8.53228 29.9958 8.53228 28.9207C8.53228 28.3729 8.84178 27.8722 9.33174 27.6272L13.0717 25.7572C14.2856 25.1502 15.7144 25.1502 16.9283 25.7572L20.6683 27.6272Z" fill="white"/>
<path d="M26.058 7.29555C27.0892 6.70021 28.4077 7.05351 29.0031 8.08467C29.5984 9.11583 29.2451 10.4344 28.214 11.0297L3.94195 25.0432C2.91079 25.6385 1.59226 25.2852 0.996918 24.254C0.401578 23.2229 0.754879 21.9043 1.78604 21.309L26.058 7.29555Z" fill="white"/>
<path d="M22.0886 5.53156C22.0558 4.98476 22.3347 4.46634 22.8091 4.19244C23.7402 3.65489 24.9115 4.28509 24.9759 5.35826L25.1667 8.5366C25.231 9.60928 25.7967 10.589 26.6935 11.1811L29.3506 12.9355C30.2478 13.5279 30.2079 14.8574 29.2769 15.3949C28.8025 15.6688 28.214 15.6512 27.7569 15.3493L24.2674 13.0454C23.1349 12.2976 22.4205 11.0602 22.3391 9.70548L22.0886 5.53156Z" fill="white"/>
<path d="M7.91139 26.8071C7.94421 27.3539 7.66528 27.8724 7.19087 28.1463C6.25981 28.6838 5.08854 28.0536 5.02412 26.9804L4.83335 23.8021C4.76897 22.7294 4.2033 21.7497 3.30652 21.1576L0.649384 19.4032C-0.247802 18.8108 -0.207938 17.4813 0.723128 16.9438C1.19753 16.6699 1.78596 16.6875 2.2431 16.9894L5.73255 19.2933C6.86514 20.0411 7.57955 21.2785 7.66086 22.6332L7.91139 26.8071Z" fill="white"/>
<path d="M28.214 21.309C29.2451 21.9043 29.5984 23.2229 29.0031 24.254C28.4077 25.2852 27.0892 25.6385 26.058 25.0432L1.78604 11.0297C0.75488 10.4344 0.40158 9.11582 0.996919 8.08467C1.59226 7.05351 2.9108 6.70021 3.94195 7.29555L28.214 21.309Z" fill="white"/>
<path d="M27.7569 16.9894C28.214 16.6875 28.8025 16.6699 29.2769 16.9438C30.2079 17.4813 30.2478 18.8108 29.3506 19.4032L26.6935 21.1576C25.7967 21.7497 25.231 22.7294 25.1667 23.8021L24.9759 26.9804C24.9115 28.0536 23.7402 28.6838 22.8091 28.1463C22.3347 27.8724 22.0558 27.3539 22.0886 26.8071L22.3391 22.6332C22.4205 21.2785 23.1349 20.0411 24.2674 19.2933L27.7569 16.9894Z" fill="white"/>
<path d="M2.2431 15.3493C1.78596 15.6512 1.19753 15.6688 0.723129 15.3949C-0.207937 14.8574 -0.2478 13.5279 0.649387 12.9355L3.30652 11.1811C4.2033 10.589 4.76897 9.60928 4.83335 8.5366L5.02413 5.35826C5.08854 4.28509 6.25981 3.65489 7.19088 4.19244C7.66528 4.46633 7.94422 4.98476 7.91139 5.53156L7.66086 9.70548C7.57955 11.0602 6.86514 12.2976 5.73255 13.0454L2.2431 15.3493Z" fill="white"/>
</svg>
