<svg width="30" height="20" viewBox="0 0 30 20" fill="none" xmlns="http://www.w3.org/2000/svg">
<path d="M27.4487 1.8809C28.7042 1.5165 30 2.49435 30 3.86526C30 4.70352 29.5009 5.44941 28.7397 5.69557C26.8344 6.31167 23.1127 7.36842 20 7.36842C17.0711 7.36842 12.9289 4.21053 10 4.21053C7.39327 4.21053 4.35944 4.58111 2.323 4.88251C1.1092 5.06217 -5.35791e-08 4.07851 0 2.78825C4.17023e-08 1.784 0.682317 0.926263 1.62593 0.778235C3.61415 0.466338 7.0758 -6.27891e-08 10 0C12.9289 6.28908e-08 17.0711 3.1579 20 3.1579C22.511 3.1579 25.4183 2.4702 27.4487 1.8809Z" fill="white"/>
<path d="M27.4487 8.19669C28.7042 7.83229 30 8.81014 30 10.181C30 11.0193 29.5009 11.7652 28.7397 12.0114C26.8344 12.6275 23.1127 13.6842 20 13.6842C17.0711 13.6842 12.9289 10.5263 10 10.5263C7.39327 10.5263 4.35944 10.8969 2.323 11.1983C1.1092 11.378 -5.35791e-08 10.3943 0 9.10404C4.17023e-08 8.09979 0.682317 7.24205 1.62593 7.09403C3.61415 6.78213 7.0758 6.31579 10 6.31579C12.9289 6.31579 17.0711 9.47369 20 9.47369C22.511 9.47369 25.4183 8.78599 27.4487 8.19669Z" fill="white"/>
<path d="M27.4487 14.5125C28.7042 14.1481 30 15.1259 30 16.4968C30 17.3351 29.5009 18.081 28.7397 18.3272C26.8344 18.9432 23.1127 20 20 20C17.0711 20 12.9289 16.8421 10 16.8421C7.39327 16.8421 4.35944 17.2127 2.323 17.5141C1.1092 17.6937 -5.35791e-08 16.7101 0 15.4198C4.17023e-08 14.4156 0.682317 13.5578 1.62593 13.4098C3.61415 13.0979 7.0758 12.6316 10 12.6316C12.9289 12.6316 17.0711 15.7895 20 15.7895C22.511 15.7895 25.4183 15.1018 27.4487 14.5125Z" fill="white"/>
</svg>
